<svg id="图层_1" data-name="图层 1" xmlns="http://www.w3.org/2000/svg" viewBox="0 0 67.62 65.39"><defs><style>.cls-1{fill:#c7b299;}</style></defs><path class="cls-1" d="M83.77,64.35a1.42,1.42,0,0,0,.08-.18,1.46,1.46,0,0,0-.91-1.85h0c-1-.33-1.92-.67-2.9-1s-2-.63-3-.92c-.49-.15-1-.29-1.49-.42s-1-.27-1.52-.37-1-.25-1.55-.33-1-.2-1.58-.25a23.16,23.16,0,0,0-3.23-.21c-1.08,0-2.15.09-3.18.21l-1,.12A25.64,25.64,0,0,0,66.44,56a22.79,22.79,0,0,0,1.37-2A23.06,23.06,0,0,0,69,51.86l.48-1.12.43-1.14c.25-.77.47-1.55.65-2.34l.23-1.19.17-1.2c.08-.8.15-1.6.16-2.4a23.77,23.77,0,0,0,0-2.39c0-.79-.13-1.58-.23-2.37s-.23-1.56-.39-2.33-.33-1.53-.54-2.29c-.38-1.52-.88-3-1.4-4.46a1.46,1.46,0,0,0-1.66-1c-1.53.29-3.06.61-4.56,1-.76.2-1.51.44-2.25.69s-1.48.54-2.21.83-1.46.63-2.16,1a23.64,23.64,0,0,0-2.09,1.16c-.69.41-1.35.87-2,1.34l-1,.75-.91.8c-.59.56-1.15,1.14-1.69,1.75-.27.3-.52.62-.77.94l-.72,1A21,21,0,0,0,45.25,41a19.78,19.78,0,0,0-1,2.19A25.25,25.25,0,0,0,43,47.32c-.13-.3-.25-.6-.39-.9-.41-1-.89-1.91-1.41-2.85a23.85,23.85,0,0,0-1.81-2.69c-.32-.44-.67-.83-1-1.24s-.71-.78-1.06-1.17-.73-.75-1.09-1.12-.74-.74-1.12-1.09c-.75-.71-1.51-1.4-2.28-2.08s-1.54-1.34-2.31-2l0,0L30.28,32a1.45,1.45,0,0,0-2,.43c-.4.61-.83,1.21-1.2,1.86S26.33,35.6,26,36.26s-.67,1.33-.94,2-.54,1.4-.78,2.11l-.32,1.08-.26,1.11a20.92,20.92,0,0,0-.37,2.24,21.53,21.53,0,0,0,0,4.54,22.24,22.24,0,0,0,.88,4.44c.22.73.48,1.43.75,2.13s.6,1.38.93,2c.23.45.49.89.74,1.32l-1-.17a18.61,18.61,0,0,0-8.28.91h0a1.45,1.45,0,0,0-.94,1.77h0a14.65,14.65,0,0,0,.54,1.44,13.18,13.18,0,0,0,.69,1.35,13.71,13.71,0,0,0,.83,1.26c.3.4.62.78.95,1.14a19.38,19.38,0,0,0,4.48,3.59A27,27,0,0,0,29,73a21.08,21.08,0,0,0,5.46,1.15.37.37,0,0,0,.39-.31.38.38,0,0,0-.31-.43h0a19.8,19.8,0,0,1-5-1.63,25.4,25.4,0,0,1-4.54-2.67,17,17,0,0,1-3.65-3.58,11.71,11.71,0,0,1-.69-1A9.21,9.21,0,0,1,20,63.36a7.12,7.12,0,0,1-.34-.87,14.86,14.86,0,0,1,5.57-.39,9.34,9.34,0,0,1,3.16,1,7.14,7.14,0,0,1,1.88,1.43c.21.24.41.5.62.73a1.49,1.49,0,0,0,2.32-1.88h0l-.08-.09h0l-.42-.51c-.08-.08-.15-.18-.23-.27a30.89,30.89,0,0,1-3.95-5.86c-.3-.59-.57-1.2-.83-1.81S27.21,53.58,27,53a20.56,20.56,0,0,1-.77-3.87,18.35,18.35,0,0,1,0-3.92c.07-.65.19-1.3.32-1.94l.23-1,.28-1c.21-.62.42-1.25.69-1.86s.54-1.22.84-1.82.63-1.18,1-1.75a3.28,3.28,0,0,1,.2-.31l1,.86c.74.66,1.49,1.33,2.2,2,.36.34.72.68,1.06,1s.71.69,1,1.06.67.7,1,1.07.64.73.91,1.12a20.41,20.41,0,0,1,1.58,2.34c.46.83.89,1.68,1.28,2.58s.78,1.84,1.17,2.77.81,1.88,1.23,2.82a1.5,1.5,0,0,0,2.85-.44h0c.18-1.49.37-2.93.67-4.34A24.49,24.49,0,0,1,47,44.35c.27-.65.57-1.29.9-1.91A20.33,20.33,0,0,1,49,40.65l.62-.85.66-.81c.47-.53,1-1,1.47-1.51l.79-.7.83-.65c.58-.42,1.16-.83,1.77-1.19a21.25,21.25,0,0,1,1.87-1c.64-.33,1.3-.62,2-.9s1.34-.54,2-.77,1.38-.45,2.09-.64,1.41-.36,2.12-.53l.91-.19c.1.29.2.58.29.87.21.7.44,1.4.61,2.11s.35,1.41.5,2.12.25,1.43.36,2.14.17,1.44.21,2.15.06,1.43,0,2.14S68,43.82,68,44.53l-.14,1-.21,1c-.16.69-.34,1.36-.56,2l-.37,1-.42,1c-.31.63-.63,1.25-1,1.85a20.51,20.51,0,0,1-1.2,1.73,23.88,23.88,0,0,1-2.91,3.13c-1.06,1-2.21,1.87-3.41,2.77h0a1.5,1.5,0,0,0,1.06,2.68l3.06-.36c1-.13,2-.27,3-.37a28.46,28.46,0,0,1,2.87-.2,20.68,20.68,0,0,1,2.83.18c.47,0,.94.15,1.41.23s1,.2,1.43.3,1,.23,1.42.35,1,.26,1.43.4c1,.27,1.9.58,2.85.89l1.23.42c-.06.1-.11.21-.17.32-.31.6-.66,1.17-1,1.74s-.73,1.12-1.14,1.64-.83,1-1.27,1.53l-.68.72-.71.68c-.49.44-1,.87-1.52,1.26a19.51,19.51,0,0,1-3.38,2,20.18,20.18,0,0,1-3.72,1.28c-.64.15-1.3.27-2,.37s-1.32.16-2,.2a31,31,0,0,1-7-.47l-.38-.06-.62-.11h0l-.12,0h0a1.49,1.49,0,0,0-.46,3l.94.16a7.37,7.37,0,0,1,2.19.91,9.4,9.4,0,0,1,2.45,2.23,15.24,15.24,0,0,1,2.47,5,7.38,7.38,0,0,1-.94.16,9.87,9.87,0,0,1-1.22.06c-.41,0-.83,0-1.24-.06a16.86,16.86,0,0,1-4.94-1.33,25.15,25.15,0,0,1-4.59-2.6,25.64,25.64,0,0,1-2.08-1.66c-.34-.3-.66-.61-1-.92s-.59-.63-.89-1a.37.37,0,0,0-.49-.08.38.38,0,0,0-.11.52h0c.24.37.53.77.82,1.13s.59.71.91,1.06A26.61,26.61,0,0,0,53,87.42a19,19,0,0,0,5.38,2.06,14.06,14.06,0,0,0,1.47.22,10.69,10.69,0,0,0,1.5.08,12.9,12.9,0,0,0,1.52-.08c.51-.06,1-.16,1.51-.27h0a1.45,1.45,0,0,0,1.06-1.71v0a18.53,18.53,0,0,0-3.39-7.62c-.19-.25-.4-.5-.62-.74.5,0,1,0,1.51,0,.74,0,1.49-.12,2.23-.22s1.48-.25,2.22-.42a22.83,22.83,0,0,0,4.28-1.48,22,22,0,0,0,3.91-2.31c.61-.46,1.19-.94,1.75-1.45l.82-.78.78-.82c.49-.57,1-1.14,1.43-1.74s.87-1.21,1.28-1.83.78-1.27,1.13-1.92S83.44,65,83.77,64.35Z" transform="translate(-16.3 -27.65)"/><path class="cls-1" d="M39.76,90.82l-.07-.12-.22-.39A7.32,7.32,0,0,1,39,89.15a8.12,8.12,0,0,1-.35-2,13.65,13.65,0,0,1,.18-2.75,25.38,25.38,0,0,1,2.39-6.9c.59-1.18,1.38-2.51,2.09-3.82l2.21-4C47,67,48.46,64.3,49.79,61.75s2.58-4.93,3.61-7,1.87-3.79,2.46-5,.91-1.92.91-1.92a.38.38,0,0,0-.13-.46.37.37,0,0,0-.52.09s-.44.63-1.2,1.75-1.83,2.7-3.07,4.64-2.71,4.19-4.23,6.64-3.12,5.06-4.71,7.68c-.78,1.32-1.57,2.64-2.34,3.93S39,74.65,38.3,76a24.86,24.86,0,0,0-2.75,7.88,14,14,0,0,0-.12,3.51A10.87,10.87,0,0,0,36,90.17a8.84,8.84,0,0,0,.81,1.66l.37.55a1.49,1.49,0,0,0,2.54-1.56Z" transform="translate(-16.3 -27.65)"/></svg>